<?xml version="1.0" encoding="UTF-8" ?>
<svg version="1.1" width="34" height="10" xmlns="http://www.w3.org/2000/svg">
<rect x="0" y="0" width="1" height="1" fill="#212121" />
<rect x="1" y="0" width="1" height="1" fill="#212121" />
<rect x="2" y="0" width="1" height="1" fill="#212121" />
<rect x="3" y="0" width="1" height="1" fill="#212121" />
<rect x="4" y="0" width="1" height="1" fill="#212121" />
<rect x="5" y="0" width="1" height="1" fill="#212121" />
<rect x="6" y="0" width="1" height="1" fill="#212121" />
<rect x="7" y="0" width="1" height="1" fill="#212121" />
<rect x="8" y="0" width="1" height="1" fill="#212121" />
<rect x="12" y="0" width="1" height="1" fill="#212121" />
<rect x="13" y="0" width="1" height="1" fill="#212121" />
<rect x="14" y="0" width="1" height="1" fill="#212121" />
<rect x="15" y="0" width="1" height="1" fill="#212121" />
<rect x="16" y="0" width="1" height="1" fill="#212121" />
<rect x="17" y="0" width="1" height="1" fill="#212121" />
<rect x="18" y="0" width="1" height="1" fill="#212121" />
<rect x="19" y="0" width="1" height="1" fill="#212121" />
<rect x="20" y="0" width="1" height="1" fill="#212121" />
<rect x="24" y="0" width="1" height="1" fill="#212121" />
<rect x="25" y="0" width="1" height="1" fill="#212121" />
<rect x="26" y="0" width="1" height="1" fill="#212121" />
<rect x="27" y="0" width="1" height="1" fill="#212121" />
<rect x="28" y="0" width="1" height="1" fill="#212121" />
<rect x="29" y="0" width="1" height="1" fill="#212121" />
<rect x="30" y="0" width="1" height="1" fill="#212121" />
<rect x="31" y="0" width="1" height="1" fill="#212121" />
<rect x="32" y="0" width="1" height="1" fill="#212121" />
<rect x="0" y="1" width="1" height="1" fill="#212121" />
<rect x="5" y="1" width="1" height="1" fill="#212121" />
<rect x="8" y="1" width="1" height="1" fill="#212121" />
<rect x="9" y="1" width="1" height="1" fill="#212121" />
<rect x="12" y="1" width="1" height="1" fill="#212121" />
<rect x="20" y="1" width="1" height="1" fill="#212121" />
<rect x="21" y="1" width="1" height="1" fill="#212121" />
<rect x="24" y="1" width="1" height="1" fill="#212121" />
<rect x="29" y="1" width="1" height="1" fill="#212121" />
<rect x="32" y="1" width="1" height="1" fill="#212121" />
<rect x="33" y="1" width="1" height="1" fill="#212121" />
<rect x="0" y="2" width="1" height="1" fill="#212121" />
<rect x="5" y="2" width="1" height="1" fill="#212121" />
<rect x="9" y="2" width="1" height="1" fill="#212121" />
<rect x="12" y="2" width="1" height="1" fill="#212121" />
<rect x="17" y="2" width="1" height="1" fill="#212121" />
<rect x="21" y="2" width="1" height="1" fill="#212121" />
<rect x="24" y="2" width="1" height="1" fill="#212121" />
<rect x="29" y="2" width="1" height="1" fill="#212121" />
<rect x="33" y="2" width="1" height="1" fill="#212121" />
<rect x="0" y="3" width="1" height="1" fill="#212121" />
<rect x="5" y="3" width="1" height="1" fill="#212121" />
<rect x="9" y="3" width="1" height="1" fill="#212121" />
<rect x="12" y="3" width="1" height="1" fill="#212121" />
<rect x="17" y="3" width="1" height="1" fill="#212121" />
<rect x="21" y="3" width="1" height="1" fill="#212121" />
<rect x="24" y="3" width="1" height="1" fill="#212121" />
<rect x="29" y="3" width="1" height="1" fill="#212121" />
<rect x="33" y="3" width="1" height="1" fill="#212121" />
<rect x="0" y="4" width="1" height="1" fill="#212121" />
<rect x="5" y="4" width="1" height="1" fill="#212121" />
<rect x="9" y="4" width="1" height="1" fill="#212121" />
<rect x="12" y="4" width="1" height="1" fill="#212121" />
<rect x="17" y="4" width="1" height="1" fill="#212121" />
<rect x="21" y="4" width="1" height="1" fill="#212121" />
<rect x="24" y="4" width="1" height="1" fill="#212121" />
<rect x="29" y="4" width="1" height="1" fill="#212121" />
<rect x="33" y="4" width="1" height="1" fill="#212121" />
<rect x="0" y="5" width="1" height="1" fill="#212121" />
<rect x="5" y="5" width="1" height="1" fill="#212121" />
<rect x="9" y="5" width="1" height="1" fill="#212121" />
<rect x="12" y="5" width="1" height="1" fill="#212121" />
<rect x="17" y="5" width="1" height="1" fill="#212121" />
<rect x="21" y="5" width="1" height="1" fill="#212121" />
<rect x="24" y="5" width="1" height="1" fill="#212121" />
<rect x="29" y="5" width="1" height="1" fill="#212121" />
<rect x="33" y="5" width="1" height="1" fill="#212121" />
<rect x="0" y="6" width="1" height="1" fill="#212121" />
<rect x="9" y="6" width="1" height="1" fill="#212121" />
<rect x="12" y="6" width="1" height="1" fill="#212121" />
<rect x="17" y="6" width="1" height="1" fill="#212121" />
<rect x="21" y="6" width="1" height="1" fill="#212121" />
<rect x="24" y="6" width="1" height="1" fill="#212121" />
<rect x="33" y="6" width="1" height="1" fill="#212121" />
<rect x="0" y="7" width="1" height="1" fill="#212121" />
<rect x="1" y="7" width="1" height="1" fill="#212121" />
<rect x="2" y="7" width="1" height="1" fill="#212121" />
<rect x="3" y="7" width="1" height="1" fill="#212121" />
<rect x="4" y="7" width="1" height="1" fill="#212121" />
<rect x="5" y="7" width="1" height="1" fill="#212121" />
<rect x="9" y="7" width="1" height="1" fill="#212121" />
<rect x="12" y="7" width="1" height="1" fill="#212121" />
<rect x="17" y="7" width="1" height="1" fill="#212121" />
<rect x="21" y="7" width="1" height="1" fill="#212121" />
<rect x="24" y="7" width="1" height="1" fill="#212121" />
<rect x="25" y="7" width="1" height="1" fill="#212121" />
<rect x="26" y="7" width="1" height="1" fill="#212121" />
<rect x="27" y="7" width="1" height="1" fill="#212121" />
<rect x="28" y="7" width="1" height="1" fill="#212121" />
<rect x="29" y="7" width="1" height="1" fill="#212121" />
<rect x="33" y="7" width="1" height="1" fill="#212121" />
<rect x="5" y="8" width="1" height="1" fill="#212121" />
<rect x="9" y="8" width="1" height="1" fill="#212121" />
<rect x="12" y="8" width="1" height="1" fill="#212121" />
<rect x="21" y="8" width="1" height="1" fill="#212121" />
<rect x="29" y="8" width="1" height="1" fill="#212121" />
<rect x="33" y="8" width="1" height="1" fill="#212121" />
<rect x="5" y="9" width="1" height="1" fill="#212121" />
<rect x="6" y="9" width="1" height="1" fill="#212121" />
<rect x="7" y="9" width="1" height="1" fill="#212121" />
<rect x="8" y="9" width="1" height="1" fill="#212121" />
<rect x="9" y="9" width="1" height="1" fill="#212121" />
<rect x="12" y="9" width="1" height="1" fill="#212121" />
<rect x="13" y="9" width="1" height="1" fill="#212121" />
<rect x="14" y="9" width="1" height="1" fill="#212121" />
<rect x="15" y="9" width="1" height="1" fill="#212121" />
<rect x="16" y="9" width="1" height="1" fill="#212121" />
<rect x="17" y="9" width="1" height="1" fill="#212121" />
<rect x="18" y="9" width="1" height="1" fill="#212121" />
<rect x="19" y="9" width="1" height="1" fill="#212121" />
<rect x="20" y="9" width="1" height="1" fill="#212121" />
<rect x="21" y="9" width="1" height="1" fill="#212121" />
<rect x="29" y="9" width="1" height="1" fill="#212121" />
<rect x="30" y="9" width="1" height="1" fill="#212121" />
<rect x="31" y="9" width="1" height="1" fill="#212121" />
<rect x="32" y="9" width="1" height="1" fill="#212121" />
<rect x="33" y="9" width="1" height="1" fill="#212121" />
</svg>