<?xml version="1.0" encoding="UTF-8" ?>
<svg version="1.1" width="70" height="10" xmlns="http://www.w3.org/2000/svg">
<rect x="0" y="0" width="1" height="1" fill="#212121" />
<rect x="1" y="0" width="1" height="1" fill="#212121" />
<rect x="2" y="0" width="1" height="1" fill="#212121" />
<rect x="3" y="0" width="1" height="1" fill="#212121" />
<rect x="4" y="0" width="1" height="1" fill="#212121" />
<rect x="5" y="0" width="1" height="1" fill="#212121" />
<rect x="6" y="0" width="1" height="1" fill="#212121" />
<rect x="7" y="0" width="1" height="1" fill="#212121" />
<rect x="8" y="0" width="1" height="1" fill="#212121" />
<rect x="12" y="0" width="1" height="1" fill="#212121" />
<rect x="13" y="0" width="1" height="1" fill="#212121" />
<rect x="14" y="0" width="1" height="1" fill="#212121" />
<rect x="15" y="0" width="1" height="1" fill="#212121" />
<rect x="16" y="0" width="1" height="1" fill="#212121" />
<rect x="17" y="0" width="1" height="1" fill="#212121" />
<rect x="18" y="0" width="1" height="1" fill="#212121" />
<rect x="19" y="0" width="1" height="1" fill="#212121" />
<rect x="20" y="0" width="1" height="1" fill="#212121" />
<rect x="24" y="0" width="1" height="1" fill="#212121" />
<rect x="25" y="0" width="1" height="1" fill="#212121" />
<rect x="26" y="0" width="1" height="1" fill="#212121" />
<rect x="27" y="0" width="1" height="1" fill="#212121" />
<rect x="28" y="0" width="1" height="1" fill="#212121" />
<rect x="29" y="0" width="1" height="1" fill="#212121" />
<rect x="30" y="0" width="1" height="1" fill="#212121" />
<rect x="31" y="0" width="1" height="1" fill="#212121" />
<rect x="32" y="0" width="1" height="1" fill="#212121" />
<rect x="36" y="0" width="1" height="1" fill="#212121" />
<rect x="37" y="0" width="1" height="1" fill="#212121" />
<rect x="38" y="0" width="1" height="1" fill="#212121" />
<rect x="39" y="0" width="1" height="1" fill="#212121" />
<rect x="40" y="0" width="1" height="1" fill="#212121" />
<rect x="41" y="0" width="1" height="1" fill="#212121" />
<rect x="48" y="0" width="1" height="1" fill="#212121" />
<rect x="49" y="0" width="1" height="1" fill="#212121" />
<rect x="50" y="0" width="1" height="1" fill="#212121" />
<rect x="51" y="0" width="1" height="1" fill="#212121" />
<rect x="52" y="0" width="1" height="1" fill="#212121" />
<rect x="53" y="0" width="1" height="1" fill="#212121" />
<rect x="54" y="0" width="1" height="1" fill="#212121" />
<rect x="55" y="0" width="1" height="1" fill="#212121" />
<rect x="56" y="0" width="1" height="1" fill="#212121" />
<rect x="60" y="0" width="1" height="1" fill="#212121" />
<rect x="61" y="0" width="1" height="1" fill="#212121" />
<rect x="62" y="0" width="1" height="1" fill="#212121" />
<rect x="63" y="0" width="1" height="1" fill="#212121" />
<rect x="64" y="0" width="1" height="1" fill="#212121" />
<rect x="65" y="0" width="1" height="1" fill="#212121" />
<rect x="66" y="0" width="1" height="1" fill="#212121" />
<rect x="67" y="0" width="1" height="1" fill="#212121" />
<rect x="68" y="0" width="1" height="1" fill="#212121" />
<rect x="0" y="1" width="1" height="1" fill="#212121" />
<rect x="8" y="1" width="1" height="1" fill="#212121" />
<rect x="9" y="1" width="1" height="1" fill="#212121" />
<rect x="12" y="1" width="1" height="1" fill="#212121" />
<rect x="17" y="1" width="1" height="1" fill="#212121" />
<rect x="20" y="1" width="1" height="1" fill="#212121" />
<rect x="21" y="1" width="1" height="1" fill="#212121" />
<rect x="24" y="1" width="1" height="1" fill="#212121" />
<rect x="32" y="1" width="1" height="1" fill="#212121" />
<rect x="33" y="1" width="1" height="1" fill="#212121" />
<rect x="36" y="1" width="1" height="1" fill="#212121" />
<rect x="41" y="1" width="1" height="1" fill="#212121" />
<rect x="48" y="1" width="1" height="1" fill="#212121" />
<rect x="53" y="1" width="1" height="1" fill="#212121" />
<rect x="56" y="1" width="1" height="1" fill="#212121" />
<rect x="57" y="1" width="1" height="1" fill="#212121" />
<rect x="60" y="1" width="1" height="1" fill="#212121" />
<rect x="68" y="1" width="1" height="1" fill="#212121" />
<rect x="69" y="1" width="1" height="1" fill="#212121" />
<rect x="0" y="2" width="1" height="1" fill="#212121" />
<rect x="9" y="2" width="1" height="1" fill="#212121" />
<rect x="12" y="2" width="1" height="1" fill="#212121" />
<rect x="17" y="2" width="1" height="1" fill="#212121" />
<rect x="21" y="2" width="1" height="1" fill="#212121" />
<rect x="24" y="2" width="1" height="1" fill="#212121" />
<rect x="33" y="2" width="1" height="1" fill="#212121" />
<rect x="36" y="2" width="1" height="1" fill="#212121" />
<rect x="41" y="2" width="1" height="1" fill="#212121" />
<rect x="48" y="2" width="1" height="1" fill="#212121" />
<rect x="53" y="2" width="1" height="1" fill="#212121" />
<rect x="57" y="2" width="1" height="1" fill="#212121" />
<rect x="60" y="2" width="1" height="1" fill="#212121" />
<rect x="69" y="2" width="1" height="1" fill="#212121" />
<rect x="0" y="3" width="1" height="1" fill="#212121" />
<rect x="9" y="3" width="1" height="1" fill="#212121" />
<rect x="12" y="3" width="1" height="1" fill="#212121" />
<rect x="17" y="3" width="1" height="1" fill="#212121" />
<rect x="21" y="3" width="1" height="1" fill="#212121" />
<rect x="24" y="3" width="1" height="1" fill="#212121" />
<rect x="33" y="3" width="1" height="1" fill="#212121" />
<rect x="36" y="3" width="1" height="1" fill="#212121" />
<rect x="41" y="3" width="1" height="1" fill="#212121" />
<rect x="48" y="3" width="1" height="1" fill="#212121" />
<rect x="53" y="3" width="1" height="1" fill="#212121" />
<rect x="57" y="3" width="1" height="1" fill="#212121" />
<rect x="60" y="3" width="1" height="1" fill="#212121" />
<rect x="69" y="3" width="1" height="1" fill="#212121" />
<rect x="0" y="4" width="1" height="1" fill="#212121" />
<rect x="9" y="4" width="1" height="1" fill="#212121" />
<rect x="12" y="4" width="1" height="1" fill="#212121" />
<rect x="17" y="4" width="1" height="1" fill="#212121" />
<rect x="21" y="4" width="1" height="1" fill="#212121" />
<rect x="24" y="4" width="1" height="1" fill="#212121" />
<rect x="33" y="4" width="1" height="1" fill="#212121" />
<rect x="36" y="4" width="1" height="1" fill="#212121" />
<rect x="41" y="4" width="1" height="1" fill="#212121" />
<rect x="48" y="4" width="1" height="1" fill="#212121" />
<rect x="53" y="4" width="1" height="1" fill="#212121" />
<rect x="57" y="4" width="1" height="1" fill="#212121" />
<rect x="60" y="4" width="1" height="1" fill="#212121" />
<rect x="69" y="4" width="1" height="1" fill="#212121" />
<rect x="0" y="5" width="1" height="1" fill="#212121" />
<rect x="6" y="5" width="1" height="1" fill="#212121" />
<rect x="7" y="5" width="1" height="1" fill="#212121" />
<rect x="8" y="5" width="1" height="1" fill="#212121" />
<rect x="9" y="5" width="1" height="1" fill="#212121" />
<rect x="12" y="5" width="1" height="1" fill="#212121" />
<rect x="17" y="5" width="1" height="1" fill="#212121" />
<rect x="21" y="5" width="1" height="1" fill="#212121" />
<rect x="24" y="5" width="1" height="1" fill="#212121" />
<rect x="29" y="5" width="1" height="1" fill="#212121" />
<rect x="33" y="5" width="1" height="1" fill="#212121" />
<rect x="36" y="5" width="1" height="1" fill="#212121" />
<rect x="41" y="5" width="1" height="1" fill="#212121" />
<rect x="48" y="5" width="1" height="1" fill="#212121" />
<rect x="53" y="5" width="1" height="1" fill="#212121" />
<rect x="57" y="5" width="1" height="1" fill="#212121" />
<rect x="60" y="5" width="1" height="1" fill="#212121" />
<rect x="65" y="5" width="1" height="1" fill="#212121" />
<rect x="69" y="5" width="1" height="1" fill="#212121" />
<rect x="0" y="6" width="1" height="1" fill="#212121" />
<rect x="9" y="6" width="1" height="1" fill="#212121" />
<rect x="12" y="6" width="1" height="1" fill="#212121" />
<rect x="17" y="6" width="1" height="1" fill="#212121" />
<rect x="21" y="6" width="1" height="1" fill="#212121" />
<rect x="24" y="6" width="1" height="1" fill="#212121" />
<rect x="29" y="6" width="1" height="1" fill="#212121" />
<rect x="33" y="6" width="1" height="1" fill="#212121" />
<rect x="36" y="6" width="1" height="1" fill="#212121" />
<rect x="41" y="6" width="1" height="1" fill="#212121" />
<rect x="42" y="6" width="1" height="1" fill="#212121" />
<rect x="43" y="6" width="1" height="1" fill="#212121" />
<rect x="44" y="6" width="1" height="1" fill="#212121" />
<rect x="45" y="6" width="1" height="1" fill="#212121" />
<rect x="48" y="6" width="1" height="1" fill="#212121" />
<rect x="56" y="6" width="1" height="1" fill="#212121" />
<rect x="57" y="6" width="1" height="1" fill="#212121" />
<rect x="60" y="6" width="1" height="1" fill="#212121" />
<rect x="69" y="6" width="1" height="1" fill="#212121" />
<rect x="0" y="7" width="1" height="1" fill="#212121" />
<rect x="1" y="7" width="1" height="1" fill="#212121" />
<rect x="2" y="7" width="1" height="1" fill="#212121" />
<rect x="3" y="7" width="1" height="1" fill="#212121" />
<rect x="4" y="7" width="1" height="1" fill="#212121" />
<rect x="5" y="7" width="1" height="1" fill="#212121" />
<rect x="9" y="7" width="1" height="1" fill="#212121" />
<rect x="12" y="7" width="1" height="1" fill="#212121" />
<rect x="21" y="7" width="1" height="1" fill="#212121" />
<rect x="24" y="7" width="1" height="1" fill="#212121" />
<rect x="29" y="7" width="1" height="1" fill="#212121" />
<rect x="33" y="7" width="1" height="1" fill="#212121" />
<rect x="36" y="7" width="1" height="1" fill="#212121" />
<rect x="41" y="7" width="1" height="1" fill="#212121" />
<rect x="45" y="7" width="1" height="1" fill="#212121" />
<rect x="48" y="7" width="1" height="1" fill="#212121" />
<rect x="53" y="7" width="1" height="1" fill="#212121" />
<rect x="57" y="7" width="1" height="1" fill="#212121" />
<rect x="60" y="7" width="1" height="1" fill="#212121" />
<rect x="65" y="7" width="1" height="1" fill="#212121" />
<rect x="69" y="7" width="1" height="1" fill="#212121" />
<rect x="0" y="8" width="1" height="1" fill="#212121" />
<rect x="9" y="8" width="1" height="1" fill="#212121" />
<rect x="12" y="8" width="1" height="1" fill="#212121" />
<rect x="16" y="8" width="1" height="1" fill="#212121" />
<rect x="18" y="8" width="1" height="1" fill="#212121" />
<rect x="21" y="8" width="1" height="1" fill="#212121" />
<rect x="24" y="8" width="1" height="1" fill="#212121" />
<rect x="33" y="8" width="1" height="1" fill="#212121" />
<rect x="36" y="8" width="1" height="1" fill="#212121" />
<rect x="45" y="8" width="1" height="1" fill="#212121" />
<rect x="48" y="8" width="1" height="1" fill="#212121" />
<rect x="53" y="8" width="1" height="1" fill="#212121" />
<rect x="57" y="8" width="1" height="1" fill="#212121" />
<rect x="60" y="8" width="1" height="1" fill="#212121" />
<rect x="65" y="8" width="1" height="1" fill="#212121" />
<rect x="69" y="8" width="1" height="1" fill="#212121" />
<rect x="0" y="9" width="1" height="1" fill="#212121" />
<rect x="1" y="9" width="1" height="1" fill="#212121" />
<rect x="2" y="9" width="1" height="1" fill="#212121" />
<rect x="3" y="9" width="1" height="1" fill="#212121" />
<rect x="4" y="9" width="1" height="1" fill="#212121" />
<rect x="5" y="9" width="1" height="1" fill="#212121" />
<rect x="6" y="9" width="1" height="1" fill="#212121" />
<rect x="7" y="9" width="1" height="1" fill="#212121" />
<rect x="8" y="9" width="1" height="1" fill="#212121" />
<rect x="9" y="9" width="1" height="1" fill="#212121" />
<rect x="12" y="9" width="1" height="1" fill="#212121" />
<rect x="13" y="9" width="1" height="1" fill="#212121" />
<rect x="14" y="9" width="1" height="1" fill="#212121" />
<rect x="15" y="9" width="1" height="1" fill="#212121" />
<rect x="16" y="9" width="1" height="1" fill="#212121" />
<rect x="17" y="9" width="1" height="1" fill="#212121" />
<rect x="18" y="9" width="1" height="1" fill="#212121" />
<rect x="19" y="9" width="1" height="1" fill="#212121" />
<rect x="20" y="9" width="1" height="1" fill="#212121" />
<rect x="21" y="9" width="1" height="1" fill="#212121" />
<rect x="24" y="9" width="1" height="1" fill="#212121" />
<rect x="25" y="9" width="1" height="1" fill="#212121" />
<rect x="26" y="9" width="1" height="1" fill="#212121" />
<rect x="27" y="9" width="1" height="1" fill="#212121" />
<rect x="28" y="9" width="1" height="1" fill="#212121" />
<rect x="29" y="9" width="1" height="1" fill="#212121" />
<rect x="30" y="9" width="1" height="1" fill="#212121" />
<rect x="31" y="9" width="1" height="1" fill="#212121" />
<rect x="32" y="9" width="1" height="1" fill="#212121" />
<rect x="33" y="9" width="1" height="1" fill="#212121" />
<rect x="36" y="9" width="1" height="1" fill="#212121" />
<rect x="37" y="9" width="1" height="1" fill="#212121" />
<rect x="38" y="9" width="1" height="1" fill="#212121" />
<rect x="39" y="9" width="1" height="1" fill="#212121" />
<rect x="40" y="9" width="1" height="1" fill="#212121" />
<rect x="41" y="9" width="1" height="1" fill="#212121" />
<rect x="42" y="9" width="1" height="1" fill="#212121" />
<rect x="43" y="9" width="1" height="1" fill="#212121" />
<rect x="44" y="9" width="1" height="1" fill="#212121" />
<rect x="45" y="9" width="1" height="1" fill="#212121" />
<rect x="48" y="9" width="1" height="1" fill="#212121" />
<rect x="49" y="9" width="1" height="1" fill="#212121" />
<rect x="50" y="9" width="1" height="1" fill="#212121" />
<rect x="51" y="9" width="1" height="1" fill="#212121" />
<rect x="52" y="9" width="1" height="1" fill="#212121" />
<rect x="53" y="9" width="1" height="1" fill="#212121" />
<rect x="54" y="9" width="1" height="1" fill="#212121" />
<rect x="55" y="9" width="1" height="1" fill="#212121" />
<rect x="56" y="9" width="1" height="1" fill="#212121" />
<rect x="57" y="9" width="1" height="1" fill="#212121" />
<rect x="60" y="9" width="1" height="1" fill="#212121" />
<rect x="61" y="9" width="1" height="1" fill="#212121" />
<rect x="62" y="9" width="1" height="1" fill="#212121" />
<rect x="63" y="9" width="1" height="1" fill="#212121" />
<rect x="64" y="9" width="1" height="1" fill="#212121" />
<rect x="65" y="9" width="1" height="1" fill="#212121" />
<rect x="66" y="9" width="1" height="1" fill="#212121" />
<rect x="67" y="9" width="1" height="1" fill="#212121" />
<rect x="68" y="9" width="1" height="1" fill="#212121" />
<rect x="69" y="9" width="1" height="1" fill="#212121" />
</svg>