<?xml version="1.0" encoding="UTF-8" ?>
<svg version="1.1" xmlns="http://www.w3.org/2000/svg" viewBox="0 -0.5 70 70" width="70" height="70" shape-rendering="crispEdges">
  <path stroke="#212121" d="M0 0h9M12 0h9M24 0h9M36 0h6M48 0h9M60 0h9M0 1h1M8 1h2M12 1h1M17 1h1M20 1h2M24 1h1M32 1h2M36 1h1M41 1h1M48 1h1M53 1h1M56 1h2M60 1h1M68 1h2M0 2h1M9 2h1M12 2h1M17 2h1M21 2h1M24 2h1M33 2h1M36 2h1M41 2h1M48 2h1M53 2h1M57 2h1M60 2h1M69 2h1M0 3h1M9 3h1M12 3h1M17 3h1M21 3h1M24 3h1M33 3h1M36 3h1M41 3h1M48 3h1M53 3h1M57 3h1M60 3h1M69 3h1M0 4h1M9 4h1M12 4h1M17 4h1M21 4h1M24 4h1M33 4h1M36 4h1M41 4h1M48 4h1M53 4h1M57 4h1M60 4h1M69 4h1M0 5h1M6 5h4M12 5h1M17 5h1M21 5h1M24 5h1M29 5h1M33 5h1M36 5h1M41 5h1M48 5h1M53 5h1M57 5h1M60 5h1M65 5h1M69 5h1M0 6h1M9 6h1M12 6h1M17 6h1M21 6h1M24 6h1M29 6h1M33 6h1M36 6h1M41 6h5M48 6h1M56 6h2M60 6h1M69 6h1M0 7h6M9 7h1M12 7h1M21 7h1M24 7h1M29 7h1M33 7h1M36 7h1M41 7h1M45 7h1M48 7h1M53 7h1M57 7h1M60 7h1M65 7h1M69 7h1M0 8h1M9 8h1M12 8h1M16 8h1M18 8h1M21 8h1M24 8h1M33 8h1M36 8h1M45 8h1M48 8h1M53 8h1M57 8h1M60 8h1M65 8h1M69 8h1M0 9h10M12 9h10M24 9h10M36 9h10M48 9h10M60 9h10" />
</svg>
