<?xml version="1.0" encoding="UTF-8" ?>
<svg version="1.1" width="92" height="16" xmlns="http://www.w3.org/2000/svg">
<rect x="4" y="0" width="1" height="1" fill="#000000" />
<rect x="5" y="0" width="1" height="1" fill="#000000" />
<rect x="11" y="0" width="1" height="1" fill="#000000" />
<rect x="12" y="0" width="1" height="1" fill="#000000" />
<rect x="3" y="1" width="1" height="1" fill="#000000" />
<rect x="4" y="1" width="1" height="1" fill="#26C6DA" />
<rect x="5" y="1" width="1" height="1" fill="#26C6DA" />
<rect x="6" y="1" width="1" height="1" fill="#000000" />
<rect x="10" y="1" width="1" height="1" fill="#000000" />
<rect x="11" y="1" width="1" height="1" fill="#26C6DA" />
<rect x="12" y="1" width="1" height="1" fill="#26C6DA" />
<rect x="13" y="1" width="1" height="1" fill="#000000" />
<rect x="2" y="2" width="1" height="1" fill="#000000" />
<rect x="3" y="2" width="1" height="1" fill="#26C6DA" />
<rect x="4" y="2" width="1" height="1" fill="#26C6DA" />
<rect x="5" y="2" width="1" height="1" fill="#26C6DA" />
<rect x="6" y="2" width="1" height="1" fill="#000000" />
<rect x="9" y="2" width="1" height="1" fill="#000000" />
<rect x="10" y="2" width="1" height="1" fill="#26C6DA" />
<rect x="11" y="2" width="1" height="1" fill="#26C6DA" />
<rect x="12" y="2" width="1" height="1" fill="#26C6DA" />
<rect x="13" y="2" width="1" height="1" fill="#000000" />
<rect x="2" y="3" width="1" height="1" fill="#000000" />
<rect x="3" y="3" width="1" height="1" fill="#26C6DA" />
<rect x="4" y="3" width="1" height="1" fill="#3CCCDE" />
<rect x="5" y="3" width="1" height="1" fill="#26C6DA" />
<rect x="6" y="3" width="1" height="1" fill="#26C6DA" />
<rect x="7" y="3" width="1" height="1" fill="#000000" />
<rect x="9" y="3" width="1" height="1" fill="#000000" />
<rect x="10" y="3" width="1" height="1" fill="#26C6DA" />
<rect x="11" y="3" width="1" height="1" fill="#3CCCDE" />
<rect x="12" y="3" width="1" height="1" fill="#26C6DA" />
<rect x="13" y="3" width="1" height="1" fill="#26C6DA" />
<rect x="14" y="3" width="1" height="1" fill="#000000" />
<rect x="22" y="3" width="1" height="1" fill="#000000" />
<rect x="23" y="3" width="1" height="1" fill="#000000" />
<rect x="24" y="3" width="1" height="1" fill="#000000" />
<rect x="25" y="3" width="1" height="1" fill="#000000" />
<rect x="26" y="3" width="1" height="1" fill="#000000" />
<rect x="27" y="3" width="1" height="1" fill="#000000" />
<rect x="28" y="3" width="1" height="1" fill="#000000" />
<rect x="29" y="3" width="1" height="1" fill="#000000" />
<rect x="30" y="3" width="1" height="1" fill="#000000" />
<rect x="34" y="3" width="1" height="1" fill="#000000" />
<rect x="35" y="3" width="1" height="1" fill="#000000" />
<rect x="36" y="3" width="1" height="1" fill="#000000" />
<rect x="37" y="3" width="1" height="1" fill="#000000" />
<rect x="38" y="3" width="1" height="1" fill="#000000" />
<rect x="39" y="3" width="1" height="1" fill="#000000" />
<rect x="40" y="3" width="1" height="1" fill="#000000" />
<rect x="41" y="3" width="1" height="1" fill="#000000" />
<rect x="42" y="3" width="1" height="1" fill="#000000" />
<rect x="46" y="3" width="1" height="1" fill="#000000" />
<rect x="47" y="3" width="1" height="1" fill="#000000" />
<rect x="48" y="3" width="1" height="1" fill="#000000" />
<rect x="49" y="3" width="1" height="1" fill="#000000" />
<rect x="50" y="3" width="1" height="1" fill="#000000" />
<rect x="51" y="3" width="1" height="1" fill="#000000" />
<rect x="52" y="3" width="1" height="1" fill="#000000" />
<rect x="53" y="3" width="1" height="1" fill="#000000" />
<rect x="54" y="3" width="1" height="1" fill="#000000" />
<rect x="58" y="3" width="1" height="1" fill="#000000" />
<rect x="59" y="3" width="1" height="1" fill="#000000" />
<rect x="60" y="3" width="1" height="1" fill="#000000" />
<rect x="61" y="3" width="1" height="1" fill="#000000" />
<rect x="62" y="3" width="1" height="1" fill="#000000" />
<rect x="63" y="3" width="1" height="1" fill="#000000" />
<rect x="70" y="3" width="1" height="1" fill="#000000" />
<rect x="71" y="3" width="1" height="1" fill="#000000" />
<rect x="72" y="3" width="1" height="1" fill="#000000" />
<rect x="73" y="3" width="1" height="1" fill="#000000" />
<rect x="74" y="3" width="1" height="1" fill="#000000" />
<rect x="75" y="3" width="1" height="1" fill="#000000" />
<rect x="76" y="3" width="1" height="1" fill="#000000" />
<rect x="77" y="3" width="1" height="1" fill="#000000" />
<rect x="78" y="3" width="1" height="1" fill="#000000" />
<rect x="82" y="3" width="1" height="1" fill="#000000" />
<rect x="83" y="3" width="1" height="1" fill="#000000" />
<rect x="84" y="3" width="1" height="1" fill="#000000" />
<rect x="85" y="3" width="1" height="1" fill="#000000" />
<rect x="86" y="3" width="1" height="1" fill="#000000" />
<rect x="87" y="3" width="1" height="1" fill="#000000" />
<rect x="88" y="3" width="1" height="1" fill="#000000" />
<rect x="89" y="3" width="1" height="1" fill="#000000" />
<rect x="90" y="3" width="1" height="1" fill="#000000" />
<rect x="1" y="4" width="1" height="1" fill="#000000" />
<rect x="2" y="4" width="1" height="1" fill="#26C6DA" />
<rect x="3" y="4" width="1" height="1" fill="#26C6DA" />
<rect x="4" y="4" width="1" height="1" fill="#3CCCDE" />
<rect x="5" y="4" width="1" height="1" fill="#3CCCDE" />
<rect x="6" y="4" width="1" height="1" fill="#26C6DA" />
<rect x="7" y="4" width="1" height="1" fill="#26C6DA" />
<rect x="8" y="4" width="1" height="1" fill="#000000" />
<rect x="9" y="4" width="1" height="1" fill="#26C6DA" />
<rect x="10" y="4" width="1" height="1" fill="#26C6DA" />
<rect x="11" y="4" width="1" height="1" fill="#3CCCDE" />
<rect x="12" y="4" width="1" height="1" fill="#3CCCDE" />
<rect x="13" y="4" width="1" height="1" fill="#26C6DA" />
<rect x="14" y="4" width="1" height="1" fill="#000000" />
<rect x="22" y="4" width="1" height="1" fill="#000000" />
<rect x="23" y="4" width="1" height="1" fill="#FAFAFA" />
<rect x="24" y="4" width="1" height="1" fill="#FAFAFA" />
<rect x="25" y="4" width="1" height="1" fill="#FAFAFA" />
<rect x="26" y="4" width="1" height="1" fill="#FAFAFA" />
<rect x="27" y="4" width="1" height="1" fill="#FAFAFA" />
<rect x="28" y="4" width="1" height="1" fill="#FAFAFA" />
<rect x="29" y="4" width="1" height="1" fill="#FAFAFA" />
<rect x="30" y="4" width="1" height="1" fill="#000000" />
<rect x="31" y="4" width="1" height="1" fill="#000000" />
<rect x="34" y="4" width="1" height="1" fill="#000000" />
<rect x="35" y="4" width="1" height="1" fill="#FAFAFA" />
<rect x="36" y="4" width="1" height="1" fill="#FAFAFA" />
<rect x="37" y="4" width="1" height="1" fill="#FAFAFA" />
<rect x="38" y="4" width="1" height="1" fill="#FAFAFA" />
<rect x="39" y="4" width="1" height="1" fill="#000000" />
<rect x="40" y="4" width="1" height="1" fill="#FAFAFA" />
<rect x="41" y="4" width="1" height="1" fill="#FAFAFA" />
<rect x="42" y="4" width="1" height="1" fill="#000000" />
<rect x="43" y="4" width="1" height="1" fill="#000000" />
<rect x="46" y="4" width="1" height="1" fill="#000000" />
<rect x="47" y="4" width="1" height="1" fill="#FAFAFA" />
<rect x="48" y="4" width="1" height="1" fill="#FAFAFA" />
<rect x="49" y="4" width="1" height="1" fill="#FAFAFA" />
<rect x="50" y="4" width="1" height="1" fill="#FAFAFA" />
<rect x="51" y="4" width="1" height="1" fill="#FAFAFA" />
<rect x="52" y="4" width="1" height="1" fill="#FAFAFA" />
<rect x="53" y="4" width="1" height="1" fill="#FAFAFA" />
<rect x="54" y="4" width="1" height="1" fill="#000000" />
<rect x="55" y="4" width="1" height="1" fill="#000000" />
<rect x="58" y="4" width="1" height="1" fill="#000000" />
<rect x="59" y="4" width="1" height="1" fill="#FAFAFA" />
<rect x="60" y="4" width="1" height="1" fill="#FAFAFA" />
<rect x="61" y="4" width="1" height="1" fill="#FAFAFA" />
<rect x="62" y="4" width="1" height="1" fill="#FAFAFA" />
<rect x="63" y="4" width="1" height="1" fill="#000000" />
<rect x="70" y="4" width="1" height="1" fill="#000000" />
<rect x="71" y="4" width="1" height="1" fill="#FAFAFA" />
<rect x="72" y="4" width="1" height="1" fill="#FAFAFA" />
<rect x="73" y="4" width="1" height="1" fill="#FAFAFA" />
<rect x="74" y="4" width="1" height="1" fill="#FAFAFA" />
<rect x="75" y="4" width="1" height="1" fill="#000000" />
<rect x="76" y="4" width="1" height="1" fill="#FAFAFA" />
<rect x="77" y="4" width="1" height="1" fill="#FAFAFA" />
<rect x="78" y="4" width="1" height="1" fill="#000000" />
<rect x="79" y="4" width="1" height="1" fill="#000000" />
<rect x="82" y="4" width="1" height="1" fill="#000000" />
<rect x="83" y="4" width="1" height="1" fill="#FAFAFA" />
<rect x="84" y="4" width="1" height="1" fill="#FAFAFA" />
<rect x="85" y="4" width="1" height="1" fill="#FAFAFA" />
<rect x="86" y="4" width="1" height="1" fill="#FAFAFA" />
<rect x="87" y="4" width="1" height="1" fill="#FAFAFA" />
<rect x="88" y="4" width="1" height="1" fill="#FAFAFA" />
<rect x="89" y="4" width="1" height="1" fill="#FAFAFA" />
<rect x="90" y="4" width="1" height="1" fill="#000000" />
<rect x="91" y="4" width="1" height="1" fill="#000000" />
<rect x="1" y="5" width="1" height="1" fill="#000000" />
<rect x="2" y="5" width="1" height="1" fill="#26C6DA" />
<rect x="3" y="5" width="1" height="1" fill="#3CCCDE" />
<rect x="4" y="5" width="1" height="1" fill="#3CCCDE" />
<rect x="5" y="5" width="1" height="1" fill="#3CCCDE" />
<rect x="6" y="5" width="1" height="1" fill="#3CCCDE" />
<rect x="7" y="5" width="1" height="1" fill="#26C6DA" />
<rect x="8" y="5" width="1" height="1" fill="#26C6DA" />
<rect x="9" y="5" width="1" height="1" fill="#000000" />
<rect x="10" y="5" width="1" height="1" fill="#000000" />
<rect x="11" y="5" width="1" height="1" fill="#3CCCDE" />
<rect x="12" y="5" width="1" height="1" fill="#3CCCDE" />
<rect x="13" y="5" width="1" height="1" fill="#26C6DA" />
<rect x="14" y="5" width="1" height="1" fill="#000000" />
<rect x="22" y="5" width="1" height="1" fill="#000000" />
<rect x="23" y="5" width="1" height="1" fill="#FAFAFA" />
<rect x="24" y="5" width="1" height="1" fill="#FAFAFA" />
<rect x="25" y="5" width="1" height="1" fill="#FAFAFA" />
<rect x="26" y="5" width="1" height="1" fill="#FAFAFA" />
<rect x="27" y="5" width="1" height="1" fill="#FAFAFA" />
<rect x="28" y="5" width="1" height="1" fill="#FAFAFA" />
<rect x="29" y="5" width="1" height="1" fill="#FAFAFA" />
<rect x="30" y="5" width="1" height="1" fill="#FAFAFA" />
<rect x="31" y="5" width="1" height="1" fill="#000000" />
<rect x="34" y="5" width="1" height="1" fill="#000000" />
<rect x="35" y="5" width="1" height="1" fill="#FAFAFA" />
<rect x="36" y="5" width="1" height="1" fill="#FAFAFA" />
<rect x="37" y="5" width="1" height="1" fill="#FAFAFA" />
<rect x="38" y="5" width="1" height="1" fill="#FAFAFA" />
<rect x="39" y="5" width="1" height="1" fill="#000000" />
<rect x="40" y="5" width="1" height="1" fill="#FAFAFA" />
<rect x="41" y="5" width="1" height="1" fill="#FAFAFA" />
<rect x="42" y="5" width="1" height="1" fill="#FAFAFA" />
<rect x="43" y="5" width="1" height="1" fill="#000000" />
<rect x="46" y="5" width="1" height="1" fill="#000000" />
<rect x="47" y="5" width="1" height="1" fill="#FAFAFA" />
<rect x="48" y="5" width="1" height="1" fill="#FAFAFA" />
<rect x="49" y="5" width="1" height="1" fill="#FAFAFA" />
<rect x="50" y="5" width="1" height="1" fill="#FAFAFA" />
<rect x="51" y="5" width="1" height="1" fill="#FAFAFA" />
<rect x="52" y="5" width="1" height="1" fill="#FAFAFA" />
<rect x="53" y="5" width="1" height="1" fill="#FAFAFA" />
<rect x="54" y="5" width="1" height="1" fill="#FAFAFA" />
<rect x="55" y="5" width="1" height="1" fill="#000000" />
<rect x="58" y="5" width="1" height="1" fill="#000000" />
<rect x="59" y="5" width="1" height="1" fill="#FAFAFA" />
<rect x="60" y="5" width="1" height="1" fill="#FAFAFA" />
<rect x="61" y="5" width="1" height="1" fill="#FAFAFA" />
<rect x="62" y="5" width="1" height="1" fill="#FAFAFA" />
<rect x="63" y="5" width="1" height="1" fill="#000000" />
<rect x="70" y="5" width="1" height="1" fill="#000000" />
<rect x="71" y="5" width="1" height="1" fill="#FAFAFA" />
<rect x="72" y="5" width="1" height="1" fill="#FAFAFA" />
<rect x="73" y="5" width="1" height="1" fill="#FAFAFA" />
<rect x="74" y="5" width="1" height="1" fill="#FAFAFA" />
<rect x="75" y="5" width="1" height="1" fill="#000000" />
<rect x="76" y="5" width="1" height="1" fill="#FAFAFA" />
<rect x="77" y="5" width="1" height="1" fill="#FAFAFA" />
<rect x="78" y="5" width="1" height="1" fill="#FAFAFA" />
<rect x="79" y="5" width="1" height="1" fill="#000000" />
<rect x="82" y="5" width="1" height="1" fill="#000000" />
<rect x="83" y="5" width="1" height="1" fill="#FAFAFA" />
<rect x="84" y="5" width="1" height="1" fill="#FAFAFA" />
<rect x="85" y="5" width="1" height="1" fill="#FAFAFA" />
<rect x="86" y="5" width="1" height="1" fill="#FAFAFA" />
<rect x="87" y="5" width="1" height="1" fill="#FAFAFA" />
<rect x="88" y="5" width="1" height="1" fill="#FAFAFA" />
<rect x="89" y="5" width="1" height="1" fill="#FAFAFA" />
<rect x="90" y="5" width="1" height="1" fill="#FAFAFA" />
<rect x="91" y="5" width="1" height="1" fill="#000000" />
<rect x="0" y="6" width="1" height="1" fill="#000000" />
<rect x="1" y="6" width="1" height="1" fill="#26C6DA" />
<rect x="2" y="6" width="1" height="1" fill="#26C6DA" />
<rect x="3" y="6" width="1" height="1" fill="#3CCCDE" />
<rect x="4" y="6" width="1" height="1" fill="#51D1E2" />
<rect x="5" y="6" width="1" height="1" fill="#51D1E2" />
<rect x="6" y="6" width="1" height="1" fill="#3CCCDE" />
<rect x="7" y="6" width="1" height="1" fill="#3CCCDE" />
<rect x="8" y="6" width="1" height="1" fill="#26C6DA" />
<rect x="9" y="6" width="1" height="1" fill="#26C6DA" />
<rect x="10" y="6" width="1" height="1" fill="#26C6DA" />
<rect x="11" y="6" width="1" height="1" fill="#000000" />
<rect x="12" y="6" width="1" height="1" fill="#000000" />
<rect x="13" y="6" width="1" height="1" fill="#26C6DA" />
<rect x="14" y="6" width="1" height="1" fill="#26C6DA" />
<rect x="15" y="6" width="1" height="1" fill="#000000" />
<rect x="22" y="6" width="1" height="1" fill="#000000" />
<rect x="23" y="6" width="1" height="1" fill="#FAFAFA" />
<rect x="24" y="6" width="1" height="1" fill="#FAFAFA" />
<rect x="25" y="6" width="1" height="1" fill="#FAFAFA" />
<rect x="26" y="6" width="1" height="1" fill="#FAFAFA" />
<rect x="27" y="6" width="1" height="1" fill="#FAFAFA" />
<rect x="28" y="6" width="1" height="1" fill="#FAFAFA" />
<rect x="29" y="6" width="1" height="1" fill="#FAFAFA" />
<rect x="30" y="6" width="1" height="1" fill="#FAFAFA" />
<rect x="31" y="6" width="1" height="1" fill="#000000" />
<rect x="34" y="6" width="1" height="1" fill="#000000" />
<rect x="35" y="6" width="1" height="1" fill="#FAFAFA" />
<rect x="36" y="6" width="1" height="1" fill="#FAFAFA" />
<rect x="37" y="6" width="1" height="1" fill="#FAFAFA" />
<rect x="38" y="6" width="1" height="1" fill="#FAFAFA" />
<rect x="39" y="6" width="1" height="1" fill="#000000" />
<rect x="40" y="6" width="1" height="1" fill="#FAFAFA" />
<rect x="41" y="6" width="1" height="1" fill="#FAFAFA" />
<rect x="42" y="6" width="1" height="1" fill="#FAFAFA" />
<rect x="43" y="6" width="1" height="1" fill="#000000" />
<rect x="46" y="6" width="1" height="1" fill="#000000" />
<rect x="47" y="6" width="1" height="1" fill="#FAFAFA" />
<rect x="48" y="6" width="1" height="1" fill="#FAFAFA" />
<rect x="49" y="6" width="1" height="1" fill="#FAFAFA" />
<rect x="50" y="6" width="1" height="1" fill="#FAFAFA" />
<rect x="51" y="6" width="1" height="1" fill="#FAFAFA" />
<rect x="52" y="6" width="1" height="1" fill="#FAFAFA" />
<rect x="53" y="6" width="1" height="1" fill="#FAFAFA" />
<rect x="54" y="6" width="1" height="1" fill="#FAFAFA" />
<rect x="55" y="6" width="1" height="1" fill="#000000" />
<rect x="58" y="6" width="1" height="1" fill="#000000" />
<rect x="59" y="6" width="1" height="1" fill="#FAFAFA" />
<rect x="60" y="6" width="1" height="1" fill="#FAFAFA" />
<rect x="61" y="6" width="1" height="1" fill="#FAFAFA" />
<rect x="62" y="6" width="1" height="1" fill="#FAFAFA" />
<rect x="63" y="6" width="1" height="1" fill="#000000" />
<rect x="70" y="6" width="1" height="1" fill="#000000" />
<rect x="71" y="6" width="1" height="1" fill="#FAFAFA" />
<rect x="72" y="6" width="1" height="1" fill="#FAFAFA" />
<rect x="73" y="6" width="1" height="1" fill="#FAFAFA" />
<rect x="74" y="6" width="1" height="1" fill="#FAFAFA" />
<rect x="75" y="6" width="1" height="1" fill="#000000" />
<rect x="76" y="6" width="1" height="1" fill="#FAFAFA" />
<rect x="77" y="6" width="1" height="1" fill="#FAFAFA" />
<rect x="78" y="6" width="1" height="1" fill="#FAFAFA" />
<rect x="79" y="6" width="1" height="1" fill="#000000" />
<rect x="82" y="6" width="1" height="1" fill="#000000" />
<rect x="83" y="6" width="1" height="1" fill="#FAFAFA" />
<rect x="84" y="6" width="1" height="1" fill="#FAFAFA" />
<rect x="85" y="6" width="1" height="1" fill="#FAFAFA" />
<rect x="86" y="6" width="1" height="1" fill="#FAFAFA" />
<rect x="87" y="6" width="1" height="1" fill="#FAFAFA" />
<rect x="88" y="6" width="1" height="1" fill="#FAFAFA" />
<rect x="89" y="6" width="1" height="1" fill="#FAFAFA" />
<rect x="90" y="6" width="1" height="1" fill="#FAFAFA" />
<rect x="91" y="6" width="1" height="1" fill="#000000" />
<rect x="0" y="7" width="1" height="1" fill="#000000" />
<rect x="1" y="7" width="1" height="1" fill="#000000" />
<rect x="2" y="7" width="1" height="1" fill="#26C6DA" />
<rect x="3" y="7" width="1" height="1" fill="#3CCCDE" />
<rect x="4" y="7" width="1" height="1" fill="#51D1E2" />
<rect x="5" y="7" width="1" height="1" fill="#51D1E2" />
<rect x="6" y="7" width="1" height="1" fill="#51D1E2" />
<rect x="7" y="7" width="1" height="1" fill="#3CCCDE" />
<rect x="8" y="7" width="1" height="1" fill="#3CCCDE" />
<rect x="9" y="7" width="1" height="1" fill="#3CCCDE" />
<rect x="10" y="7" width="1" height="1" fill="#26C6DA" />
<rect x="11" y="7" width="1" height="1" fill="#26C6DA" />
<rect x="12" y="7" width="1" height="1" fill="#26C6DA" />
<rect x="13" y="7" width="1" height="1" fill="#000000" />
<rect x="14" y="7" width="1" height="1" fill="#000000" />
<rect x="15" y="7" width="1" height="1" fill="#000000" />
<rect x="22" y="7" width="1" height="1" fill="#000000" />
<rect x="23" y="7" width="1" height="1" fill="#FAFAFA" />
<rect x="24" y="7" width="1" height="1" fill="#FAFAFA" />
<rect x="25" y="7" width="1" height="1" fill="#FAFAFA" />
<rect x="26" y="7" width="1" height="1" fill="#FAFAFA" />
<rect x="27" y="7" width="1" height="1" fill="#FAFAFA" />
<rect x="28" y="7" width="1" height="1" fill="#FAFAFA" />
<rect x="29" y="7" width="1" height="1" fill="#FAFAFA" />
<rect x="30" y="7" width="1" height="1" fill="#FAFAFA" />
<rect x="31" y="7" width="1" height="1" fill="#000000" />
<rect x="34" y="7" width="1" height="1" fill="#000000" />
<rect x="35" y="7" width="1" height="1" fill="#FAFAFA" />
<rect x="36" y="7" width="1" height="1" fill="#FAFAFA" />
<rect x="37" y="7" width="1" height="1" fill="#FAFAFA" />
<rect x="38" y="7" width="1" height="1" fill="#FAFAFA" />
<rect x="39" y="7" width="1" height="1" fill="#000000" />
<rect x="40" y="7" width="1" height="1" fill="#FAFAFA" />
<rect x="41" y="7" width="1" height="1" fill="#FAFAFA" />
<rect x="42" y="7" width="1" height="1" fill="#FAFAFA" />
<rect x="43" y="7" width="1" height="1" fill="#000000" />
<rect x="46" y="7" width="1" height="1" fill="#000000" />
<rect x="47" y="7" width="1" height="1" fill="#FAFAFA" />
<rect x="48" y="7" width="1" height="1" fill="#FAFAFA" />
<rect x="49" y="7" width="1" height="1" fill="#FAFAFA" />
<rect x="50" y="7" width="1" height="1" fill="#FAFAFA" />
<rect x="51" y="7" width="1" height="1" fill="#FAFAFA" />
<rect x="52" y="7" width="1" height="1" fill="#FAFAFA" />
<rect x="53" y="7" width="1" height="1" fill="#FAFAFA" />
<rect x="54" y="7" width="1" height="1" fill="#FAFAFA" />
<rect x="55" y="7" width="1" height="1" fill="#000000" />
<rect x="58" y="7" width="1" height="1" fill="#000000" />
<rect x="59" y="7" width="1" height="1" fill="#FAFAFA" />
<rect x="60" y="7" width="1" height="1" fill="#FAFAFA" />
<rect x="61" y="7" width="1" height="1" fill="#FAFAFA" />
<rect x="62" y="7" width="1" height="1" fill="#FAFAFA" />
<rect x="63" y="7" width="1" height="1" fill="#000000" />
<rect x="70" y="7" width="1" height="1" fill="#000000" />
<rect x="71" y="7" width="1" height="1" fill="#FAFAFA" />
<rect x="72" y="7" width="1" height="1" fill="#FAFAFA" />
<rect x="73" y="7" width="1" height="1" fill="#FAFAFA" />
<rect x="74" y="7" width="1" height="1" fill="#FAFAFA" />
<rect x="75" y="7" width="1" height="1" fill="#000000" />
<rect x="76" y="7" width="1" height="1" fill="#FAFAFA" />
<rect x="77" y="7" width="1" height="1" fill="#FAFAFA" />
<rect x="78" y="7" width="1" height="1" fill="#FAFAFA" />
<rect x="79" y="7" width="1" height="1" fill="#000000" />
<rect x="82" y="7" width="1" height="1" fill="#000000" />
<rect x="83" y="7" width="1" height="1" fill="#FAFAFA" />
<rect x="84" y="7" width="1" height="1" fill="#FAFAFA" />
<rect x="85" y="7" width="1" height="1" fill="#FAFAFA" />
<rect x="86" y="7" width="1" height="1" fill="#FAFAFA" />
<rect x="87" y="7" width="1" height="1" fill="#FAFAFA" />
<rect x="88" y="7" width="1" height="1" fill="#FAFAFA" />
<rect x="89" y="7" width="1" height="1" fill="#FAFAFA" />
<rect x="90" y="7" width="1" height="1" fill="#FAFAFA" />
<rect x="91" y="7" width="1" height="1" fill="#000000" />
<rect x="0" y="8" width="1" height="1" fill="#000000" />
<rect x="1" y="8" width="1" height="1" fill="#1A1D21" />
<rect x="2" y="8" width="1" height="1" fill="#000000" />
<rect x="3" y="8" width="1" height="1" fill="#000000" />
<rect x="4" y="8" width="1" height="1" fill="#51D1E2" />
<rect x="5" y="8" width="1" height="1" fill="#67D7E6" />
<rect x="6" y="8" width="1" height="1" fill="#51D1E2" />
<rect x="7" y="8" width="1" height="1" fill="#51D1E2" />
<rect x="8" y="8" width="1" height="1" fill="#000000" />
<rect x="9" y="8" width="1" height="1" fill="#000000" />
<rect x="10" y="8" width="1" height="1" fill="#3CCCDE" />
<rect x="11" y="8" width="1" height="1" fill="#3CCCDE" />
<rect x="12" y="8" width="1" height="1" fill="#26C6DA" />
<rect x="13" y="8" width="1" height="1" fill="#000000" />
<rect x="14" y="8" width="1" height="1" fill="#2D333A" />
<rect x="15" y="8" width="1" height="1" fill="#000000" />
<rect x="22" y="8" width="1" height="1" fill="#000000" />
<rect x="23" y="8" width="1" height="1" fill="#FAFAFA" />
<rect x="24" y="8" width="1" height="1" fill="#FAFAFA" />
<rect x="25" y="8" width="1" height="1" fill="#FAFAFA" />
<rect x="26" y="8" width="1" height="1" fill="#FAFAFA" />
<rect x="27" y="8" width="1" height="1" fill="#FAFAFA" />
<rect x="28" y="8" width="1" height="1" fill="#000000" />
<rect x="29" y="8" width="1" height="1" fill="#000000" />
<rect x="30" y="8" width="1" height="1" fill="#000000" />
<rect x="31" y="8" width="1" height="1" fill="#000000" />
<rect x="34" y="8" width="1" height="1" fill="#000000" />
<rect x="35" y="8" width="1" height="1" fill="#FAFAFA" />
<rect x="36" y="8" width="1" height="1" fill="#FAFAFA" />
<rect x="37" y="8" width="1" height="1" fill="#FAFAFA" />
<rect x="38" y="8" width="1" height="1" fill="#FAFAFA" />
<rect x="39" y="8" width="1" height="1" fill="#000000" />
<rect x="40" y="8" width="1" height="1" fill="#FAFAFA" />
<rect x="41" y="8" width="1" height="1" fill="#FAFAFA" />
<rect x="42" y="8" width="1" height="1" fill="#FAFAFA" />
<rect x="43" y="8" width="1" height="1" fill="#000000" />
<rect x="46" y="8" width="1" height="1" fill="#000000" />
<rect x="47" y="8" width="1" height="1" fill="#FAFAFA" />
<rect x="48" y="8" width="1" height="1" fill="#FAFAFA" />
<rect x="49" y="8" width="1" height="1" fill="#FAFAFA" />
<rect x="50" y="8" width="1" height="1" fill="#FAFAFA" />
<rect x="51" y="8" width="1" height="1" fill="#000000" />
<rect x="52" y="8" width="1" height="1" fill="#FAFAFA" />
<rect x="53" y="8" width="1" height="1" fill="#FAFAFA" />
<rect x="54" y="8" width="1" height="1" fill="#FAFAFA" />
<rect x="55" y="8" width="1" height="1" fill="#000000" />
<rect x="58" y="8" width="1" height="1" fill="#000000" />
<rect x="59" y="8" width="1" height="1" fill="#FAFAFA" />
<rect x="60" y="8" width="1" height="1" fill="#FAFAFA" />
<rect x="61" y="8" width="1" height="1" fill="#FAFAFA" />
<rect x="62" y="8" width="1" height="1" fill="#FAFAFA" />
<rect x="63" y="8" width="1" height="1" fill="#000000" />
<rect x="70" y="8" width="1" height="1" fill="#000000" />
<rect x="71" y="8" width="1" height="1" fill="#FAFAFA" />
<rect x="72" y="8" width="1" height="1" fill="#FAFAFA" />
<rect x="73" y="8" width="1" height="1" fill="#FAFAFA" />
<rect x="74" y="8" width="1" height="1" fill="#FAFAFA" />
<rect x="75" y="8" width="1" height="1" fill="#000000" />
<rect x="76" y="8" width="1" height="1" fill="#FAFAFA" />
<rect x="77" y="8" width="1" height="1" fill="#FAFAFA" />
<rect x="78" y="8" width="1" height="1" fill="#FAFAFA" />
<rect x="79" y="8" width="1" height="1" fill="#000000" />
<rect x="82" y="8" width="1" height="1" fill="#000000" />
<rect x="83" y="8" width="1" height="1" fill="#FAFAFA" />
<rect x="84" y="8" width="1" height="1" fill="#FAFAFA" />
<rect x="85" y="8" width="1" height="1" fill="#FAFAFA" />
<rect x="86" y="8" width="1" height="1" fill="#FAFAFA" />
<rect x="87" y="8" width="1" height="1" fill="#000000" />
<rect x="88" y="8" width="1" height="1" fill="#FAFAFA" />
<rect x="89" y="8" width="1" height="1" fill="#FAFAFA" />
<rect x="90" y="8" width="1" height="1" fill="#FAFAFA" />
<rect x="91" y="8" width="1" height="1" fill="#000000" />
<rect x="0" y="9" width="1" height="1" fill="#000000" />
<rect x="1" y="9" width="1" height="1" fill="#1A1D21" />
<rect x="2" y="9" width="1" height="1" fill="#1A1D21" />
<rect x="3" y="9" width="1" height="1" fill="#1A1D21" />
<rect x="4" y="9" width="1" height="1" fill="#000000" />
<rect x="5" y="9" width="1" height="1" fill="#67D7E6" />
<rect x="6" y="9" width="1" height="1" fill="#000000" />
<rect x="7" y="9" width="1" height="1" fill="#000000" />
<rect x="8" y="9" width="1" height="1" fill="#24282E" />
<rect x="9" y="9" width="1" height="1" fill="#24282E" />
<rect x="10" y="9" width="1" height="1" fill="#000000" />
<rect x="11" y="9" width="1" height="1" fill="#3CCCDE" />
<rect x="12" y="9" width="1" height="1" fill="#000000" />
<rect x="13" y="9" width="1" height="1" fill="#2D333A" />
<rect x="14" y="9" width="1" height="1" fill="#2D333A" />
<rect x="15" y="9" width="1" height="1" fill="#000000" />
<rect x="22" y="9" width="1" height="1" fill="#000000" />
<rect x="23" y="9" width="1" height="1" fill="#FAFAFA" />
<rect x="24" y="9" width="1" height="1" fill="#FAFAFA" />
<rect x="25" y="9" width="1" height="1" fill="#FAFAFA" />
<rect x="26" y="9" width="1" height="1" fill="#FAFAFA" />
<rect x="27" y="9" width="1" height="1" fill="#FAFAFA" />
<rect x="28" y="9" width="1" height="1" fill="#FAFAFA" />
<rect x="29" y="9" width="1" height="1" fill="#FAFAFA" />
<rect x="30" y="9" width="1" height="1" fill="#FAFAFA" />
<rect x="31" y="9" width="1" height="1" fill="#000000" />
<rect x="34" y="9" width="1" height="1" fill="#000000" />
<rect x="35" y="9" width="1" height="1" fill="#FAFAFA" />
<rect x="36" y="9" width="1" height="1" fill="#FAFAFA" />
<rect x="37" y="9" width="1" height="1" fill="#FAFAFA" />
<rect x="38" y="9" width="1" height="1" fill="#FAFAFA" />
<rect x="39" y="9" width="1" height="1" fill="#000000" />
<rect x="40" y="9" width="1" height="1" fill="#FAFAFA" />
<rect x="41" y="9" width="1" height="1" fill="#FAFAFA" />
<rect x="42" y="9" width="1" height="1" fill="#FAFAFA" />
<rect x="43" y="9" width="1" height="1" fill="#000000" />
<rect x="46" y="9" width="1" height="1" fill="#000000" />
<rect x="47" y="9" width="1" height="1" fill="#FAFAFA" />
<rect x="48" y="9" width="1" height="1" fill="#FAFAFA" />
<rect x="49" y="9" width="1" height="1" fill="#FAFAFA" />
<rect x="50" y="9" width="1" height="1" fill="#FAFAFA" />
<rect x="51" y="9" width="1" height="1" fill="#000000" />
<rect x="52" y="9" width="1" height="1" fill="#FAFAFA" />
<rect x="53" y="9" width="1" height="1" fill="#FAFAFA" />
<rect x="54" y="9" width="1" height="1" fill="#FAFAFA" />
<rect x="55" y="9" width="1" height="1" fill="#000000" />
<rect x="58" y="9" width="1" height="1" fill="#000000" />
<rect x="59" y="9" width="1" height="1" fill="#FAFAFA" />
<rect x="60" y="9" width="1" height="1" fill="#FAFAFA" />
<rect x="61" y="9" width="1" height="1" fill="#FAFAFA" />
<rect x="62" y="9" width="1" height="1" fill="#FAFAFA" />
<rect x="63" y="9" width="1" height="1" fill="#000000" />
<rect x="64" y="9" width="1" height="1" fill="#000000" />
<rect x="65" y="9" width="1" height="1" fill="#000000" />
<rect x="66" y="9" width="1" height="1" fill="#000000" />
<rect x="67" y="9" width="1" height="1" fill="#000000" />
<rect x="70" y="9" width="1" height="1" fill="#000000" />
<rect x="71" y="9" width="1" height="1" fill="#FAFAFA" />
<rect x="72" y="9" width="1" height="1" fill="#FAFAFA" />
<rect x="73" y="9" width="1" height="1" fill="#FAFAFA" />
<rect x="74" y="9" width="1" height="1" fill="#FAFAFA" />
<rect x="75" y="9" width="1" height="1" fill="#FAFAFA" />
<rect x="76" y="9" width="1" height="1" fill="#FAFAFA" />
<rect x="77" y="9" width="1" height="1" fill="#FAFAFA" />
<rect x="78" y="9" width="1" height="1" fill="#000000" />
<rect x="79" y="9" width="1" height="1" fill="#000000" />
<rect x="82" y="9" width="1" height="1" fill="#000000" />
<rect x="83" y="9" width="1" height="1" fill="#FAFAFA" />
<rect x="84" y="9" width="1" height="1" fill="#FAFAFA" />
<rect x="85" y="9" width="1" height="1" fill="#FAFAFA" />
<rect x="86" y="9" width="1" height="1" fill="#FAFAFA" />
<rect x="87" y="9" width="1" height="1" fill="#FAFAFA" />
<rect x="88" y="9" width="1" height="1" fill="#FAFAFA" />
<rect x="89" y="9" width="1" height="1" fill="#FAFAFA" />
<rect x="90" y="9" width="1" height="1" fill="#FAFAFA" />
<rect x="91" y="9" width="1" height="1" fill="#000000" />
<rect x="0" y="10" width="1" height="1" fill="#000000" />
<rect x="1" y="10" width="1" height="1" fill="#1A1D21" />
<rect x="2" y="10" width="1" height="1" fill="#1A1D21" />
<rect x="3" y="10" width="1" height="1" fill="#1A1D21" />
<rect x="4" y="10" width="1" height="1" fill="#1A1D21" />
<rect x="5" y="10" width="1" height="1" fill="#000000" />
<rect x="6" y="10" width="1" height="1" fill="#1F2327" />
<rect x="7" y="10" width="1" height="1" fill="#1F2327" />
<rect x="8" y="10" width="1" height="1" fill="#24282E" />
<rect x="9" y="10" width="1" height="1" fill="#24282E" />
<rect x="10" y="10" width="1" height="1" fill="#24282E" />
<rect x="11" y="10" width="1" height="1" fill="#000000" />
<rect x="12" y="10" width="1" height="1" fill="#282E34" />
<rect x="13" y="10" width="1" height="1" fill="#2D333A" />
<rect x="14" y="10" width="1" height="1" fill="#2D333A" />
<rect x="15" y="10" width="1" height="1" fill="#000000" />
<rect x="22" y="10" width="1" height="1" fill="#000000" />
<rect x="23" y="10" width="1" height="1" fill="#000000" />
<rect x="24" y="10" width="1" height="1" fill="#000000" />
<rect x="25" y="10" width="1" height="1" fill="#000000" />
<rect x="26" y="10" width="1" height="1" fill="#000000" />
<rect x="27" y="10" width="1" height="1" fill="#000000" />
<rect x="28" y="10" width="1" height="1" fill="#FAFAFA" />
<rect x="29" y="10" width="1" height="1" fill="#FAFAFA" />
<rect x="30" y="10" width="1" height="1" fill="#FAFAFA" />
<rect x="31" y="10" width="1" height="1" fill="#000000" />
<rect x="34" y="10" width="1" height="1" fill="#000000" />
<rect x="35" y="10" width="1" height="1" fill="#FAFAFA" />
<rect x="36" y="10" width="1" height="1" fill="#FAFAFA" />
<rect x="37" y="10" width="1" height="1" fill="#FAFAFA" />
<rect x="38" y="10" width="1" height="1" fill="#FAFAFA" />
<rect x="39" y="10" width="1" height="1" fill="#FAFAFA" />
<rect x="40" y="10" width="1" height="1" fill="#FAFAFA" />
<rect x="41" y="10" width="1" height="1" fill="#FAFAFA" />
<rect x="42" y="10" width="1" height="1" fill="#FAFAFA" />
<rect x="43" y="10" width="1" height="1" fill="#000000" />
<rect x="46" y="10" width="1" height="1" fill="#000000" />
<rect x="47" y="10" width="1" height="1" fill="#FAFAFA" />
<rect x="48" y="10" width="1" height="1" fill="#FAFAFA" />
<rect x="49" y="10" width="1" height="1" fill="#FAFAFA" />
<rect x="50" y="10" width="1" height="1" fill="#FAFAFA" />
<rect x="51" y="10" width="1" height="1" fill="#000000" />
<rect x="52" y="10" width="1" height="1" fill="#FAFAFA" />
<rect x="53" y="10" width="1" height="1" fill="#FAFAFA" />
<rect x="54" y="10" width="1" height="1" fill="#FAFAFA" />
<rect x="55" y="10" width="1" height="1" fill="#000000" />
<rect x="58" y="10" width="1" height="1" fill="#000000" />
<rect x="59" y="10" width="1" height="1" fill="#FAFAFA" />
<rect x="60" y="10" width="1" height="1" fill="#FAFAFA" />
<rect x="61" y="10" width="1" height="1" fill="#FAFAFA" />
<rect x="62" y="10" width="1" height="1" fill="#FAFAFA" />
<rect x="63" y="10" width="1" height="1" fill="#000000" />
<rect x="64" y="10" width="1" height="1" fill="#FAFAFA" />
<rect x="65" y="10" width="1" height="1" fill="#FAFAFA" />
<rect x="66" y="10" width="1" height="1" fill="#FAFAFA" />
<rect x="67" y="10" width="1" height="1" fill="#000000" />
<rect x="70" y="10" width="1" height="1" fill="#000000" />
<rect x="71" y="10" width="1" height="1" fill="#FAFAFA" />
<rect x="72" y="10" width="1" height="1" fill="#FAFAFA" />
<rect x="73" y="10" width="1" height="1" fill="#FAFAFA" />
<rect x="74" y="10" width="1" height="1" fill="#FAFAFA" />
<rect x="75" y="10" width="1" height="1" fill="#000000" />
<rect x="76" y="10" width="1" height="1" fill="#FAFAFA" />
<rect x="77" y="10" width="1" height="1" fill="#FAFAFA" />
<rect x="78" y="10" width="1" height="1" fill="#FAFAFA" />
<rect x="79" y="10" width="1" height="1" fill="#000000" />
<rect x="82" y="10" width="1" height="1" fill="#000000" />
<rect x="83" y="10" width="1" height="1" fill="#FAFAFA" />
<rect x="84" y="10" width="1" height="1" fill="#FAFAFA" />
<rect x="85" y="10" width="1" height="1" fill="#FAFAFA" />
<rect x="86" y="10" width="1" height="1" fill="#FAFAFA" />
<rect x="87" y="10" width="1" height="1" fill="#000000" />
<rect x="88" y="10" width="1" height="1" fill="#FAFAFA" />
<rect x="89" y="10" width="1" height="1" fill="#FAFAFA" />
<rect x="90" y="10" width="1" height="1" fill="#FAFAFA" />
<rect x="91" y="10" width="1" height="1" fill="#000000" />
<rect x="1" y="11" width="1" height="1" fill="#000000" />
<rect x="2" y="11" width="1" height="1" fill="#1A1D21" />
<rect x="3" y="11" width="1" height="1" fill="#1A1D21" />
<rect x="4" y="11" width="1" height="1" fill="#1A1D21" />
<rect x="5" y="11" width="1" height="1" fill="#1F2327" />
<rect x="6" y="11" width="1" height="1" fill="#1F2327" />
<rect x="7" y="11" width="1" height="1" fill="#1F2327" />
<rect x="8" y="11" width="1" height="1" fill="#24282E" />
<rect x="9" y="11" width="1" height="1" fill="#24282E" />
<rect x="10" y="11" width="1" height="1" fill="#24282E" />
<rect x="11" y="11" width="1" height="1" fill="#282E34" />
<rect x="12" y="11" width="1" height="1" fill="#282E34" />
<rect x="13" y="11" width="1" height="1" fill="#282E34" />
<rect x="14" y="11" width="1" height="1" fill="#000000" />
<rect x="22" y="11" width="1" height="1" fill="#000000" />
<rect x="23" y="11" width="1" height="1" fill="#FAFAFA" />
<rect x="24" y="11" width="1" height="1" fill="#FAFAFA" />
<rect x="25" y="11" width="1" height="1" fill="#FAFAFA" />
<rect x="26" y="11" width="1" height="1" fill="#FAFAFA" />
<rect x="27" y="11" width="1" height="1" fill="#FAFAFA" />
<rect x="28" y="11" width="1" height="1" fill="#FAFAFA" />
<rect x="29" y="11" width="1" height="1" fill="#FAFAFA" />
<rect x="30" y="11" width="1" height="1" fill="#FAFAFA" />
<rect x="31" y="11" width="1" height="1" fill="#000000" />
<rect x="34" y="11" width="1" height="1" fill="#000000" />
<rect x="35" y="11" width="1" height="1" fill="#FAFAFA" />
<rect x="36" y="11" width="1" height="1" fill="#FAFAFA" />
<rect x="37" y="11" width="1" height="1" fill="#FAFAFA" />
<rect x="38" y="11" width="1" height="1" fill="#000000" />
<rect x="39" y="11" width="1" height="1" fill="#FAFAFA" />
<rect x="40" y="11" width="1" height="1" fill="#000000" />
<rect x="41" y="11" width="1" height="1" fill="#FAFAFA" />
<rect x="42" y="11" width="1" height="1" fill="#FAFAFA" />
<rect x="43" y="11" width="1" height="1" fill="#000000" />
<rect x="46" y="11" width="1" height="1" fill="#000000" />
<rect x="47" y="11" width="1" height="1" fill="#FAFAFA" />
<rect x="48" y="11" width="1" height="1" fill="#FAFAFA" />
<rect x="49" y="11" width="1" height="1" fill="#FAFAFA" />
<rect x="50" y="11" width="1" height="1" fill="#FAFAFA" />
<rect x="51" y="11" width="1" height="1" fill="#FAFAFA" />
<rect x="52" y="11" width="1" height="1" fill="#FAFAFA" />
<rect x="53" y="11" width="1" height="1" fill="#FAFAFA" />
<rect x="54" y="11" width="1" height="1" fill="#FAFAFA" />
<rect x="55" y="11" width="1" height="1" fill="#000000" />
<rect x="58" y="11" width="1" height="1" fill="#000000" />
<rect x="59" y="11" width="1" height="1" fill="#FAFAFA" />
<rect x="60" y="11" width="1" height="1" fill="#FAFAFA" />
<rect x="61" y="11" width="1" height="1" fill="#FAFAFA" />
<rect x="62" y="11" width="1" height="1" fill="#FAFAFA" />
<rect x="63" y="11" width="1" height="1" fill="#FAFAFA" />
<rect x="64" y="11" width="1" height="1" fill="#FAFAFA" />
<rect x="65" y="11" width="1" height="1" fill="#FAFAFA" />
<rect x="66" y="11" width="1" height="1" fill="#FAFAFA" />
<rect x="67" y="11" width="1" height="1" fill="#000000" />
<rect x="70" y="11" width="1" height="1" fill="#000000" />
<rect x="71" y="11" width="1" height="1" fill="#FAFAFA" />
<rect x="72" y="11" width="1" height="1" fill="#FAFAFA" />
<rect x="73" y="11" width="1" height="1" fill="#FAFAFA" />
<rect x="74" y="11" width="1" height="1" fill="#FAFAFA" />
<rect x="75" y="11" width="1" height="1" fill="#000000" />
<rect x="76" y="11" width="1" height="1" fill="#FAFAFA" />
<rect x="77" y="11" width="1" height="1" fill="#FAFAFA" />
<rect x="78" y="11" width="1" height="1" fill="#FAFAFA" />
<rect x="79" y="11" width="1" height="1" fill="#000000" />
<rect x="82" y="11" width="1" height="1" fill="#000000" />
<rect x="83" y="11" width="1" height="1" fill="#FAFAFA" />
<rect x="84" y="11" width="1" height="1" fill="#FAFAFA" />
<rect x="85" y="11" width="1" height="1" fill="#FAFAFA" />
<rect x="86" y="11" width="1" height="1" fill="#FAFAFA" />
<rect x="87" y="11" width="1" height="1" fill="#000000" />
<rect x="88" y="11" width="1" height="1" fill="#FAFAFA" />
<rect x="89" y="11" width="1" height="1" fill="#FAFAFA" />
<rect x="90" y="11" width="1" height="1" fill="#FAFAFA" />
<rect x="91" y="11" width="1" height="1" fill="#000000" />
<rect x="1" y="12" width="1" height="1" fill="#000000" />
<rect x="2" y="12" width="1" height="1" fill="#1A1D21" />
<rect x="3" y="12" width="1" height="1" fill="#1A1D21" />
<rect x="4" y="12" width="1" height="1" fill="#1A1D21" />
<rect x="5" y="12" width="1" height="1" fill="#1F2327" />
<rect x="6" y="12" width="1" height="1" fill="#1F2327" />
<rect x="7" y="12" width="1" height="1" fill="#1F2327" />
<rect x="8" y="12" width="1" height="1" fill="#1F2327" />
<rect x="9" y="12" width="1" height="1" fill="#24282E" />
<rect x="10" y="12" width="1" height="1" fill="#24282E" />
<rect x="11" y="12" width="1" height="1" fill="#282E34" />
<rect x="12" y="12" width="1" height="1" fill="#282E34" />
<rect x="13" y="12" width="1" height="1" fill="#282E34" />
<rect x="14" y="12" width="1" height="1" fill="#000000" />
<rect x="22" y="12" width="1" height="1" fill="#000000" />
<rect x="23" y="12" width="1" height="1" fill="#000000" />
<rect x="24" y="12" width="1" height="1" fill="#000000" />
<rect x="25" y="12" width="1" height="1" fill="#000000" />
<rect x="26" y="12" width="1" height="1" fill="#000000" />
<rect x="27" y="12" width="1" height="1" fill="#000000" />
<rect x="28" y="12" width="1" height="1" fill="#000000" />
<rect x="29" y="12" width="1" height="1" fill="#000000" />
<rect x="30" y="12" width="1" height="1" fill="#000000" />
<rect x="31" y="12" width="1" height="1" fill="#000000" />
<rect x="34" y="12" width="1" height="1" fill="#000000" />
<rect x="35" y="12" width="1" height="1" fill="#000000" />
<rect x="36" y="12" width="1" height="1" fill="#000000" />
<rect x="37" y="12" width="1" height="1" fill="#000000" />
<rect x="38" y="12" width="1" height="1" fill="#000000" />
<rect x="39" y="12" width="1" height="1" fill="#000000" />
<rect x="40" y="12" width="1" height="1" fill="#000000" />
<rect x="41" y="12" width="1" height="1" fill="#000000" />
<rect x="42" y="12" width="1" height="1" fill="#000000" />
<rect x="43" y="12" width="1" height="1" fill="#000000" />
<rect x="46" y="12" width="1" height="1" fill="#000000" />
<rect x="47" y="12" width="1" height="1" fill="#000000" />
<rect x="48" y="12" width="1" height="1" fill="#000000" />
<rect x="49" y="12" width="1" height="1" fill="#000000" />
<rect x="50" y="12" width="1" height="1" fill="#000000" />
<rect x="51" y="12" width="1" height="1" fill="#000000" />
<rect x="52" y="12" width="1" height="1" fill="#000000" />
<rect x="53" y="12" width="1" height="1" fill="#000000" />
<rect x="54" y="12" width="1" height="1" fill="#000000" />
<rect x="55" y="12" width="1" height="1" fill="#000000" />
<rect x="58" y="12" width="1" height="1" fill="#000000" />
<rect x="59" y="12" width="1" height="1" fill="#000000" />
<rect x="60" y="12" width="1" height="1" fill="#000000" />
<rect x="61" y="12" width="1" height="1" fill="#000000" />
<rect x="62" y="12" width="1" height="1" fill="#000000" />
<rect x="63" y="12" width="1" height="1" fill="#000000" />
<rect x="64" y="12" width="1" height="1" fill="#000000" />
<rect x="65" y="12" width="1" height="1" fill="#000000" />
<rect x="66" y="12" width="1" height="1" fill="#000000" />
<rect x="67" y="12" width="1" height="1" fill="#000000" />
<rect x="70" y="12" width="1" height="1" fill="#000000" />
<rect x="71" y="12" width="1" height="1" fill="#000000" />
<rect x="72" y="12" width="1" height="1" fill="#000000" />
<rect x="73" y="12" width="1" height="1" fill="#000000" />
<rect x="74" y="12" width="1" height="1" fill="#000000" />
<rect x="75" y="12" width="1" height="1" fill="#000000" />
<rect x="76" y="12" width="1" height="1" fill="#000000" />
<rect x="77" y="12" width="1" height="1" fill="#000000" />
<rect x="78" y="12" width="1" height="1" fill="#000000" />
<rect x="79" y="12" width="1" height="1" fill="#000000" />
<rect x="82" y="12" width="1" height="1" fill="#000000" />
<rect x="83" y="12" width="1" height="1" fill="#000000" />
<rect x="84" y="12" width="1" height="1" fill="#000000" />
<rect x="85" y="12" width="1" height="1" fill="#000000" />
<rect x="86" y="12" width="1" height="1" fill="#000000" />
<rect x="87" y="12" width="1" height="1" fill="#000000" />
<rect x="88" y="12" width="1" height="1" fill="#000000" />
<rect x="89" y="12" width="1" height="1" fill="#000000" />
<rect x="90" y="12" width="1" height="1" fill="#000000" />
<rect x="91" y="12" width="1" height="1" fill="#000000" />
<rect x="2" y="13" width="1" height="1" fill="#000000" />
<rect x="3" y="13" width="1" height="1" fill="#000000" />
<rect x="4" y="13" width="1" height="1" fill="#1A1D21" />
<rect x="5" y="13" width="1" height="1" fill="#1A1D21" />
<rect x="6" y="13" width="1" height="1" fill="#1F2327" />
<rect x="7" y="13" width="1" height="1" fill="#1F2327" />
<rect x="8" y="13" width="1" height="1" fill="#1F2327" />
<rect x="9" y="13" width="1" height="1" fill="#24282E" />
<rect x="10" y="13" width="1" height="1" fill="#24282E" />
<rect x="11" y="13" width="1" height="1" fill="#24282E" />
<rect x="12" y="13" width="1" height="1" fill="#000000" />
<rect x="13" y="13" width="1" height="1" fill="#000000" />
<rect x="4" y="14" width="1" height="1" fill="#000000" />
<rect x="5" y="14" width="1" height="1" fill="#000000" />
<rect x="6" y="14" width="1" height="1" fill="#1F2327" />
<rect x="7" y="14" width="1" height="1" fill="#1F2327" />
<rect x="8" y="14" width="1" height="1" fill="#1F2327" />
<rect x="9" y="14" width="1" height="1" fill="#1F2327" />
<rect x="10" y="14" width="1" height="1" fill="#000000" />
<rect x="11" y="14" width="1" height="1" fill="#000000" />
<rect x="6" y="15" width="1" height="1" fill="#000000" />
<rect x="7" y="15" width="1" height="1" fill="#000000" />
<rect x="8" y="15" width="1" height="1" fill="#000000" />
<rect x="9" y="15" width="1" height="1" fill="#000000" />
</svg>